<?xml version="1.0" standalone="no"?>
<!DOCTYPE svg PUBLIC "-//W3C//DTD SVG 20010904//EN"
 "http://www.w3.org/TR/2001/REC-SVG-20010904/DTD/svg10.dtd">
<svg version="1.0" xmlns="http://www.w3.org/2000/svg"
 width="187.000000pt" height="187.000000pt" viewBox="0 0 187.000000 187.000000"
 preserveAspectRatio="xMidYMid meet">
<metadata>
Created by potrace 1.14, written by Peter Selinger 2001-2017
</metadata>
<g transform="translate(0.000000,187.000000) scale(0.100000,-0.100000)"
fill="#000000" stroke="none">
<path d="M565 1310 c-16 -5 -48 -15 -70 -24 -22 -8 -48 -15 -57 -16 -33 0 -62
-65 -74 -167 -12 -106 15 -157 70 -131 30 13 62 98 38 98 -5 0 -16 -18 -25
-40 -17 -44 -40 -52 -57 -20 -16 30 -3 137 23 190 19 39 27 45 57 48 19 2 42
10 50 17 18 16 85 32 120 29 150 -15 161 -17 180 -41 22 -28 57 -117 63 -160
6 -42 -9 -66 -34 -53 -11 6 -25 22 -31 36 -6 13 -17 24 -25 24 -20 0 22 -77
47 -85 82 -26 90 80 18 217 -31 59 -59 77 -118 77 -14 0 -52 2 -85 5 -33 3
-73 1 -90 -4z"/>
<path d="M1026 1278 c-3 -18 -7 -49 -9 -69 -3 -19 -10 -45 -16 -57 -10 -18 -9
-22 3 -22 22 0 30 19 36 84 3 33 10 61 15 63 6 1 25 -10 44 -26 25 -22 40 -27
55 -22 35 12 108 2 158 -22 40 -20 50 -22 70 -11 54 31 68 14 47 -56 -12 -39
-6 -90 11 -90 5 0 9 19 8 43 0 23 4 62 11 86 16 60 5 71 -56 49 -45 -16 -48
-16 -87 4 -29 15 -62 21 -113 22 -50 1 -77 6 -90 17 -22 20 -58 39 -72 39 -6
0 -12 -15 -15 -32z"/>
<path d="M1056 1244 c-8 -22 -7 -54 2 -54 12 1 42 26 42 36 0 5 -9 15 -19 21
-16 10 -20 9 -25 -3z"/>
<path d="M1392 1189 c-22 -8 -22 -10 -6 -34 20 -31 22 -31 35 2 12 32 2 44
-29 32z"/>
<path d="M687 1176 c-8 -19 15 -37 32 -26 17 10 7 40 -13 40 -7 0 -16 -6 -19
-14z"/>
<path d="M506 1161 c-3 -4 0 -16 7 -25 12 -16 14 -16 26 -2 7 8 10 20 6 26 -8
12 -32 13 -39 1z"/>
<path d="M1105 1140 c-8 -14 3 -30 21 -30 8 0 14 9 14 20 0 21 -24 28 -35 10z"/>
<path d="M940 1131 c0 -5 35 -23 78 -40 85 -34 85 -37 -1 -17 -38 9 -57 10
-54 3 2 -6 30 -17 62 -24 32 -7 61 -15 63 -17 2 -3 -26 -3 -62 -2 -37 2 -69
-1 -72 -6 -6 -10 -8 -10 91 -13 64 -2 82 0 92 14 19 24 16 29 -23 46 -85 35
-174 64 -174 56z"/>
<path d="M603 1108 c-31 -15 -29 -32 7 -70 17 -17 30 -34 30 -39 0 -16 -33
-39 -56 -39 -14 0 -22 -4 -19 -10 9 -15 52 -12 69 5 11 11 21 13 40 5 17 -6
35 -6 51 0 36 14 31 21 -12 18 -31 -3 -39 1 -49 22 -11 20 -11 27 0 40 20 22
28 57 16 65 -20 12 -55 13 -77 3z"/>
<path d="M1300 1101 c0 -11 4 -22 9 -25 12 -8 34 21 26 34 -11 17 -35 11 -35
-9z"/>
<path d="M1197 1054 c-4 -4 -4 -18 0 -32 5 -21 3 -24 -11 -19 -10 4 -16 1 -16
-8 0 -11 11 -15 40 -15 22 0 40 5 40 10 0 6 -7 10 -15 10 -17 0 -20 25 -5 35
6 4 8 11 5 16 -7 10 -29 12 -38 3z"/>
<path d="M700 1040 c0 -5 5 -10 10 -10 6 0 10 5 10 10 0 6 -4 10 -10 10 -5 0
-10 -4 -10 -10z"/>
<path d="M550 1019 c-30 -22 -23 -25 15 -5 14 8 23 16 18 19 -5 3 -20 -3 -33
-14z"/>
<path d="M740 1024 c0 -8 5 -12 10 -9 6 4 8 11 5 16 -9 14 -15 11 -15 -7z"/>
<path d="M1292 1013 c3 -24 11 -31 78 -55 82 -31 90 -32 90 -19 0 5 -11 12
-24 15 -30 7 -118 48 -91 42 11 -3 40 -8 65 -11 24 -4 48 -9 52 -11 3 -2 9 0
13 6 6 10 -7 14 -85 29 -42 8 -41 9 32 10 119 2 101 17 -23 20 l-110 2 3 -28z"/>
<path d="M710 1010 c0 -5 5 -10 10 -10 6 0 10 5 10 10 0 6 -4 10 -10 10 -5 0
-10 -4 -10 -10z"/>
<path d="M560 990 c0 -5 5 -10 10 -10 6 0 10 5 10 10 0 6 -4 10 -10 10 -5 0
-10 -4 -10 -10z"/>
<path d="M699 935 c-3 -2 -24 -5 -47 -6 -23 -2 -42 -5 -42 -8 0 -4 141 -5 312
-5 172 1 343 -2 381 -5 37 -4 67 -3 67 1 0 5 -17 8 -37 9 -21 0 -47 3 -58 6
-25 6 -570 14 -576 8z"/>
<path d="M555 920 l-40 -7 43 -2 c23 0 42 4 42 9 0 6 -1 9 -2 9 -2 -1 -21 -5
-43 -9z"/>
<path d="M1380 909 c0 -5 11 -9 25 -9 14 0 25 2 25 4 0 2 -11 6 -25 8 -14 3
-25 1 -25 -3z"/>
<path d="M458 903 c7 -3 16 -2 19 1 4 3 -2 6 -13 5 -11 0 -14 -3 -6 -6z"/>
<path d="M55 855 c-14 -13 -25 -35 -25 -48 0 -32 26 -54 48 -41 21 14 29 39
10 32 -8 -4 -21 -2 -28 2 -12 7 -12 13 -1 34 24 44 71 38 71 -8 0 -12 -8 -34
-19 -49 -10 -15 -16 -38 -14 -51 3 -16 -2 -28 -17 -39 -26 -18 -52 -12 -48 11
4 21 -21 28 -28 8 -16 -42 53 -61 97 -27 26 19 43 18 72 -7 16 -14 19 -14 32
4 12 16 17 17 32 6 33 -23 45 -25 64 -13 14 8 19 8 19 0 0 -6 9 -9 20 -6 21 6
24 0 21 -50 -1 -24 3 -33 14 -33 11 0 15 12 15 50 0 47 11 63 25 40 3 -5 17
-10 30 -10 13 0 27 5 30 10 3 6 1 10 -6 10 -9 0 -9 3 1 14 6 8 10 25 8 38 -2
19 -9 23 -39 22 -36 -1 -37 0 -29 27 5 17 5 31 -1 34 -10 7 -29 -36 -29 -65 0
-29 -18 -70 -31 -70 -8 0 -10 13 -5 38 l6 39 -40 1 c-33 2 -42 -3 -60 -28 -31
-43 -50 -40 -43 8 3 20 12 55 19 77 18 51 17 60 -1 45 -8 -6 -21 -37 -30 -68
-15 -49 -18 -54 -28 -37 -6 11 -10 35 -8 54 4 66 -57 94 -104 46z m111 -152
c-12 -12 -29 15 -21 34 7 17 8 16 18 -5 5 -12 7 -25 3 -29z m139 -2 c-17 -35
-40 -33 -29 2 10 33 26 49 36 39 6 -6 3 -22 -7 -41z m140 14 c0 -16 -6 -30
-14 -33 -8 -3 -11 0 -7 7 4 6 1 11 -8 11 -13 0 -14 4 -4 25 15 32 33 27 33
-10z"/>
<path d="M924 825 c-32 -67 -45 -77 -37 -30 11 69 -60 101 -112 50 -27 -28
-33 -63 -13 -83 18 -18 46 -14 58 7 14 28 13 36 -5 21 -18 -15 -45 -6 -45 15
0 25 36 54 59 48 20 -5 23 -11 25 -58 1 -19 -14 -80 -29 -117 -16 -41 16 -14
51 42 20 33 39 60 41 60 2 0 4 -10 3 -22 -5 -60 9 -112 26 -95 8 7 15 217 8
217 -2 0 -16 -25 -30 -55z"/>
<path d="M1286 854 c-29 -30 -34 -65 -10 -85 11 -9 20 -10 32 -3 26 17 26 34
0 32 -19 -3 -23 1 -20 22 3 33 29 52 52 40 21 -11 19 -52 -5 -137 -9 -30 -14
-57 -11 -60 14 -14 35 10 41 49 4 24 14 55 21 70 17 32 5 71 -25 87 -30 17
-46 13 -75 -15z"/>
<path d="M1405 830 c-5 -9 -1 -10 15 -5 17 6 22 4 18 -7 -3 -7 -11 -40 -18
-72 -10 -51 -10 -60 4 -74 13 -13 20 -14 35 -5 14 9 21 9 30 0 9 -9 17 -8 33
2 20 12 20 12 13 -26 -4 -21 -11 -45 -17 -53 -7 -11 -8 -9 -4 9 3 17 2 21 -6
13 -12 -12 -4 -42 11 -42 5 0 18 20 30 45 23 49 51 71 69 53 9 -9 18 -9 36 0
18 8 26 8 28 0 3 -7 12 -9 23 -4 15 6 17 9 6 15 -9 6 -12 19 -7 43 6 35 6 35
-34 36 -32 2 -42 -3 -55 -23 -8 -14 -22 -37 -31 -51 -22 -36 -26 -26 -9 29 18
61 -2 65 -30 5 -11 -23 -24 -39 -30 -37 -5 2 -9 6 -9 9 1 3 5 20 9 38 9 43
-12 43 -30 -1 -8 -19 -22 -40 -31 -48 -16 -13 -17 -11 -9 26 5 22 9 60 10 85
0 39 -3 45 -22 48 -11 2 -24 -2 -28 -8z m268 -92 c6 -19 -14 -58 -30 -58 -16
0 -17 11 -1 45 12 27 24 32 31 13z"/>
<path d="M520 794 c-6 -14 -10 -33 -10 -42 0 -9 -6 -28 -13 -42 -14 -29 -8
-135 8 -135 6 0 11 22 12 48 0 26 4 59 7 72 7 29 34 57 47 50 14 -9 11 -41 -6
-55 -12 -10 -15 -9 -15 6 0 14 -3 15 -12 6 -14 -14 6 -42 32 -42 26 0 50 10
50 21 0 6 -8 5 -20 -1 -19 -10 -19 -9 -3 18 24 42 11 66 -30 59 -32 -5 -33 -4
-29 29 5 40 -5 44 -18 8z"/>
<path d="M981 807 c-10 -13 -29 -87 -19 -77 7 7 38 90 34 90 -2 0 -9 -6 -15
-13z"/>
<path d="M633 725 c-8 -26 -8 -38 2 -52 12 -16 17 -16 36 -5 21 13 21 13 15
-25 -4 -21 -12 -42 -18 -48 -8 -7 -9 -5 -5 8 4 9 2 17 -3 17 -11 0 -14 -33 -3
-43 8 -9 43 22 43 39 0 7 14 29 31 49 17 19 27 35 22 35 -4 0 -14 -9 -21 -21
-20 -32 -24 -17 -8 34 19 62 -3 65 -30 5 -28 -62 -47 -51 -30 17 10 40 -19 31
-31 -10z"/>
<path d="M1018 743 c-22 -25 -27 -45 -16 -65 10 -20 43 -24 53 -8 5 8 12 7 22
-1 11 -10 19 -10 34 -1 11 7 19 8 19 2 0 -16 14 -11 27 10 13 20 7 80 -7 80
-5 0 -11 -13 -15 -29 -3 -16 -15 -37 -26 -47 -19 -17 -19 -16 -13 29 l7 47
-35 0 c-21 0 -41 -7 -50 -17z m52 -17 c0 -8 -9 -24 -20 -37 l-19 -24 -1 23 c0
30 18 64 31 57 5 -4 9 -12 9 -19z"/>
<path d="M1180 745 c-7 -9 -10 -18 -7 -22 4 -3 9 2 13 11 12 30 22 16 17 -24
-4 -31 -2 -41 11 -46 17 -7 46 11 46 29 0 5 -9 2 -20 -8 -21 -19 -24 -13 -11
20 17 41 -22 72 -49 40z"/>
<path d="M1744 743 c-3 -10 -4 -22 -4 -27 1 -5 -3 -12 -9 -16 -12 -7 -4 -40 9
-40 5 0 20 20 34 45 32 53 40 57 32 13 -3 -18 -2 -39 3 -47 11 -17 47 -6 56
16 5 14 2 13 -16 -3 l-21 -19 7 42 c9 54 -13 68 -52 32 l-25 -24 6 23 c5 14 3
22 -4 22 -7 0 -14 -8 -16 -17z"/>
<path d="M903 606 c-31 -15 -29 -28 2 -14 14 6 25 15 25 20 0 4 -1 7 -2 7 -2
-1 -13 -6 -25 -13z"/>
<path d="M1080 610 c-9 -6 -10 -10 -3 -10 6 0 15 5 18 10 8 12 4 12 -15 0z"/>
<path d="M796 597 c3 -10 9 -15 12 -12 3 3 0 11 -7 18 -10 9 -11 8 -5 -6z"/>
<path d="M843 583 c0 -9 4 -10 14 -2 7 6 13 12 13 14 0 1 -6 2 -13 2 -8 0 -14
-6 -14 -14z"/>
<path d="M1104 578 l-19 -23 23 19 c21 18 27 26 19 26 -2 0 -12 -10 -23 -22z"/>
<path d="M1356 584 c-9 -24 -2 -26 12 -4 7 11 8 20 3 20 -5 0 -12 -7 -15 -16z"/>
<path d="M1154 574 c-18 -14 -18 -15 4 -4 12 6 22 13 22 15 0 8 -5 6 -26 -11z"/>
</g>
</svg>
